<svg width="48" height="48" viewBox="0 0 48 48" fill="none" xmlns="http://www.w3.org/2000/svg">
<path d="M14 23.3445V34H24.6556L22.4333 31.7778H16.2222V25.5667L14 23.3445Z" fill="#FFC93E"/>
<path d="M42.7444 39.8779L39.5555 36.6445V39.5556H8.44441V34.9445H10.6666V33.1668H8.44441V25.7779H10.6666V24.0001H8.44441V16.889H10.6666V15.1112H8.44441V8.90009L26.1555 26.5112V23.3779L8.12219 5.43342C7.96677 5.27672 7.76822 5.16985 7.55183 5.12644C7.33545 5.08303 7.11103 5.10505 6.90721 5.18967C6.70338 5.2743 6.52937 5.41772 6.40737 5.60163C6.28537 5.78554 6.2209 6.00162 6.22219 6.22231V40.6668C6.22219 40.9614 6.33925 41.2441 6.54762 41.4524C6.756 41.6608 7.03861 41.7779 7.3333 41.7779H41.9555C42.1762 41.7791 42.3923 41.7147 42.5762 41.5927C42.7601 41.4707 42.9035 41.2967 42.9882 41.0928C43.0728 40.889 43.0948 40.6646 43.0514 40.4482C43.008 40.2318 42.9011 40.0333 42.7444 39.8779Z" fill="#FFC93E"/>
<path d="M30.6666 37.3332H35.111C35.7004 37.3332 36.2656 37.0991 36.6824 36.6823C37.0991 36.2656 37.3332 35.7004 37.3332 35.111V13.6666L34.7777 8.96655C34.58 8.62413 34.2946 8.34064 33.9508 8.14532C33.6071 7.95 33.2174 7.84994 32.8221 7.85544C32.4178 7.85865 32.0221 7.97209 31.6775 8.18354C31.3329 8.395 31.0525 8.69645 30.8666 9.05544L28.4443 13.6888V35.111C28.4443 35.7004 28.6785 36.2656 29.0952 36.6823C29.512 37.0991 30.0772 37.3332 30.6666 37.3332ZM30.6666 14.2221L32.8221 10.0332L35.111 14.2332V30.6665H30.6666V14.2221ZM30.6666 32.4777H35.111V35.1888H30.6666V32.4777Z" fill="#FFC93E"/>
</svg>
