<svg width="24" height="23" viewBox="0 0 24 23" fill="none" xmlns="http://www.w3.org/2000/svg">
<path fill-rule="evenodd" clip-rule="evenodd" d="M21.8 11.6166C21.8 11.7992 21.7262 11.9743 21.595 12.1034C21.4637 12.2326 21.2856 12.3051 21.1 12.3051L4.58979 12.3051L8.99559 16.6368C9.12704 16.766 9.20088 16.9414 9.20088 17.1242C9.20088 17.307 9.12704 17.4823 8.99559 17.6116C8.86415 17.7409 8.68588 17.8135 8.49999 17.8135C8.31411 17.8135 8.13584 17.7409 8.00439 17.6116L2.40439 12.1041C2.3392 12.0401 2.28748 11.9641 2.2522 11.8805C2.21691 11.7969 2.19874 11.7072 2.19874 11.6166C2.19874 11.5261 2.21691 11.4364 2.2522 11.3528C2.28748 11.2692 2.3392 11.1932 2.40439 11.1292L8.00439 5.62171C8.13583 5.49244 8.31411 5.41981 8.49999 5.41981C8.68588 5.41981 8.86415 5.49244 8.99559 5.62171C9.12704 5.75098 9.20088 5.92631 9.20088 6.10912C9.20088 6.29194 9.12704 6.46727 8.99559 6.59654L4.58979 10.9282L21.1 10.9282C21.2856 10.9282 21.4637 11.0007 21.595 11.1298C21.7262 11.259 21.8 11.4341 21.8 11.6166Z" fill="#0A142F"/>
</svg>
