<svg width="62" height="48" viewBox="0 0 62 48" fill="none" xmlns="http://www.w3.org/2000/svg">
<g opacity="0.2" clip-path="url(#clip0_404_436)">
<path d="M28.8 35.2324C28.8729 36.9077 28.5695 38.5782 27.9113 40.1251C27.2532 41.672 26.2564 43.0572 24.992 44.1821L24.982 44.19C22.3641 46.4729 18.9547 47.6797 15.458 47.5614H15.48C13.3664 47.6738 11.2536 47.3271 9.29168 46.5459C7.32972 45.7647 5.56675 44.5681 4.128 43.0413L4.12 43.0334C1.23558 39.6671 -0.235627 35.3461 0.0060025 30.9503L0.0040025 30.9916C-0.130043 26.4266 0.73268 21.8864 2.534 17.6772L2.454 17.8876C3.89223 14.5874 5.88771 11.5501 8.356 8.90447L8.334 8.92808C10.3732 6.75242 12.736 4.89348 15.342 3.41465L15.486 3.33991C17.457 2.22165 19.5139 1.25686 21.638 0.454361L21.95 0.350112L28.218 10.7554C25.6133 11.7889 23.3271 13.4714 21.584 15.6374L21.558 15.6709C19.8224 17.7041 18.7338 20.1949 18.428 22.8326L18.422 22.8955C19.7859 22.9291 21.1272 23.2458 22.358 23.8248C23.5888 24.4037 24.6814 25.232 25.564 26.2551L25.576 26.2689C27.8202 28.7265 28.9812 31.9594 28.804 35.258L28.806 35.2285L28.8 35.2324ZM62.696 35.2324C62.7681 36.9081 62.4642 38.5788 61.8057 40.126C61.1472 41.6731 60.1504 43.0586 58.886 44.1841L58.876 44.192C56.2586 46.4757 52.8489 47.6827 49.352 47.5634H49.374C47.2604 47.6763 45.1474 47.3298 43.1854 46.5486C41.2233 45.7674 39.4604 44.5705 38.022 43.0432L38.014 43.0334C35.1284 39.667 33.6571 35.3449 33.9 30.9483L33.898 30.9896C33.764 26.4247 34.6267 21.8845 36.428 17.6752L36.348 17.8857C37.7856 14.586 39.7796 11.5488 42.246 8.90251L42.224 8.92611C44.2639 6.75041 46.6274 4.89147 49.234 3.41269L49.378 3.33794C51.3486 2.2189 53.4056 1.25407 55.53 0.452394L55.842 0.348145L62.108 10.7534C59.503 11.7882 57.2167 13.4721 55.474 15.6394L55.448 15.6728C53.7124 17.7061 52.6238 20.1969 52.318 22.8346L52.312 22.8975C53.6754 22.9309 55.0162 23.2475 56.2464 23.8265C57.4765 24.4055 58.5683 25.2338 59.45 26.2571L59.462 26.2709C61.7087 28.7266 62.8719 31.9591 62.696 35.258L62.698 35.2285L62.696 35.2324Z" fill="#F3F5F6"/>
</g>
<defs>
<clipPath id="clip0_404_436">
<rect width="62" height="47.2073" fill="white" transform="translate(0 0.35791)"/>
</clipPath>
</defs>
</svg>
