<svg width="48" height="48" fill="none" xmlns="http://www.w3.org/2000/svg"><path d="M14 23.345V34h10.656l-2.223-2.222h-6.21v-6.211L14 23.344Z" fill="#FFC93E"/><path d="m42.744 39.878-3.188-3.233v2.91H8.444v-4.61h2.223v-1.778H8.444v-7.39h2.223V24H8.444V16.89h2.223v-1.778H8.444v-6.21l17.711 17.61v-3.133L8.122 5.433a1.111 1.111 0 0 0-1.9.79v34.444a1.111 1.111 0 0 0 1.111 1.11h34.623a1.112 1.112 0 0 0 .788-1.9Z" fill="#FFC93E"/><path d="M30.667 37.333h4.444a2.222 2.222 0 0 0 2.222-2.222V13.667l-2.555-4.7a2.223 2.223 0 0 0-1.956-1.112 2.222 2.222 0 0 0-1.955 1.2l-2.423 4.634V35.11a2.222 2.222 0 0 0 2.223 2.222Zm0-23.11 2.155-4.19 2.289 4.2v16.433h-4.444V14.223Zm0 18.255h4.444v2.71h-4.444v-2.71Z" fill="#FFC93E"/></svg>