<svg width="62" height="48" fill="none" xmlns="http://www.w3.org/2000/svg"><g opacity=".2" clip-path="url('#clip0_404_436')"><path d="M28.8 35.232a11.244 11.244 0 0 1-.889 4.893 11.413 11.413 0 0 1-2.919 4.057l-.01.008a13.787 13.787 0 0 1-9.524 3.371h.022a14.633 14.633 0 0 1-6.188-1.015 14.425 14.425 0 0 1-5.164-3.505l-.008-.008A17.119 17.119 0 0 1 .006 30.95l-.002.042a31.483 31.483 0 0 1 2.53-13.315l-.08.21a31.787 31.787 0 0 1 5.902-8.983l-.022.024a29.678 29.678 0 0 1 7.008-5.513l.144-.075A43.929 43.929 0 0 1 21.638.454L21.95.35l6.268 10.405a16.161 16.161 0 0 0-6.634 4.882l-.026.034a13.41 13.41 0 0 0-3.13 7.162l-.006.063a9.817 9.817 0 0 1 3.936.929 9.666 9.666 0 0 1 3.206 2.43l.012.014a12.344 12.344 0 0 1 3.228 8.989l.002-.03-.006.004Zm33.896 0a11.256 11.256 0 0 1-.89 4.894 11.426 11.426 0 0 1-2.92 4.058l-.01.008a13.777 13.777 0 0 1-9.524 3.371h.022a14.626 14.626 0 0 1-6.189-1.014 14.415 14.415 0 0 1-5.163-3.506l-.008-.01A17.112 17.112 0 0 1 33.9 30.948l-.002.042a31.484 31.484 0 0 1 2.53-13.315l-.08.21a31.817 31.817 0 0 1 5.898-8.982l-.022.023a29.688 29.688 0 0 1 7.01-5.513l.144-.075A43.712 43.712 0 0 1 55.53.452l.312-.104 6.266 10.405a16.166 16.166 0 0 0-6.634 4.886l-.026.034a13.41 13.41 0 0 0-3.13 7.162l-.006.063a9.805 9.805 0 0 1 3.934.928 9.654 9.654 0 0 1 3.204 2.431l.012.014a12.336 12.336 0 0 1 3.234 8.987l.002-.03-.002.004Z" fill="#F3F5F6"/></g><defs><clipPath id="clip0_404_436"><path fill="#fff" transform="translate(0 .358)" d="M0 0h62v47.207H0z"/></clipPath></defs></svg>